<?xml version="1.0" encoding="UTF-8" standalone="no"?>
<!-- Created with Inkscape (http://www.inkscape.org/) -->

<svg
   xmlns:dc="http://purl.org/dc/elements/1.1/"
   xmlns:cc="http://creativecommons.org/ns#"
   xmlns:rdf="http://www.w3.org/1999/02/22-rdf-syntax-ns#"
   xmlns:svg="http://www.w3.org/2000/svg"
   xmlns="http://www.w3.org/2000/svg"
   xmlns:sodipodi="http://sodipodi.sourceforge.net/DTD/sodipodi-0.dtd"
   xmlns:inkscape="http://www.inkscape.org/namespaces/inkscape"
   width="210mm"
   height="297mm"
   viewBox="0 0 744.09448819 1052.3622047"
   id="svg2"
   version="1.1"
   inkscape:version="0.91 r13725"
   sodipodi:docname="logo.svg">
  <defs
     id="defs4" />
  <sodipodi:namedview
     id="base"
     pagecolor="#ffffff"
     bordercolor="#666666"
     borderopacity="1.0"
     inkscape:pageopacity="0.0"
     inkscape:pageshadow="2"
     inkscape:zoom="0.5"
     inkscape:cx="328.37267"
     inkscape:cy="434.86003"
     inkscape:document-units="px"
     inkscape:current-layer="layer1"
     showgrid="false"
     inkscape:window-width="1276"
     inkscape:window-height="756"
     inkscape:window-x="3"
     inkscape:window-y="768"
     inkscape:window-maximized="0" />
  <metadata
     id="metadata7">
    <rdf:RDF>
      <cc:Work
         rdf:about="">
        <dc:format>image/svg+xml</dc:format>
        <dc:type
           rdf:resource="http://purl.org/dc/dcmitype/StillImage" />
        <dc:title></dc:title>
      </cc:Work>
    </rdf:RDF>
  </metadata>
  <g
     inkscape:label="Layer 1"
     inkscape:groupmode="layer"
     id="layer1">
    <rect
       style="opacity:1;fill:#000000;fill-opacity:1;stroke:#ffffff;stroke-width:2.5;stroke-linejoin:round;stroke-miterlimit:4;stroke-dasharray:none;stroke-dashoffset:81.09999847;stroke-opacity:1"
       id="rect4204"
       width="677"
       height="469"
       x="35"
       y="399.36221" />
    <rect
       y="528.25598"
       x="545.625"
       height="93.844254"
       width="9.5320473"
       id="rect4198"
       style="opacity:1;fill:#000000;fill-opacity:1;stroke:#ffffff;stroke-width:1.52887237;stroke-linejoin:round;stroke-miterlimit:4;stroke-dasharray:none;stroke-dashoffset:81.09999847;stroke-opacity:1" />
    <g
       id="g4188"
       transform="translate(127.40611,20)">
      <rect
         y="567.86328"
         x="343.39972"
         height="120.46976"
         width="41.677872"
         id="rect4190"
         style="opacity:1;fill:#ffffff;fill-opacity:1;stroke:#000000;stroke-width:3.72823429;stroke-linejoin:round;stroke-miterlimit:4;stroke-dasharray:none;stroke-dashoffset:81.09999847;stroke-opacity:1" />
      <rect
         style="opacity:1;fill:#ffffff;fill-opacity:1;stroke:#000000;stroke-width:4.09763193;stroke-linejoin:round;stroke-miterlimit:4;stroke-dasharray:none;stroke-dashoffset:81.09999847;stroke-opacity:1"
         id="rect4192"
         width="50.500862"
         height="120.10036"
         x="291.39203"
         y="568.04797" />
      <rect
         y="567.7558"
         x="253.29221"
         height="120.68478"
         width="36.943146"
         id="rect4194"
         style="opacity:1;fill:#ffffff;fill-opacity:1;stroke:#000000;stroke-width:3.51321387;stroke-linejoin:round;stroke-miterlimit:4;stroke-dasharray:none;stroke-dashoffset:81.09999847;stroke-opacity:1" />
    </g>
    <g
       id="g4183"
       transform="translate(0,20)">
      <rect
         style="opacity:1;fill:#ffffff;fill-opacity:1;stroke:#000000;stroke-width:3.44932246;stroke-linejoin:round;stroke-miterlimit:4;stroke-dasharray:none;stroke-dashoffset:81.09999847;stroke-opacity:1"
         id="rect4165"
         width="35.592823"
         height="120.74867"
         x="343.26025"
         y="567.72382" />
      <rect
         y="567.78711"
         x="303.8591"
         height="120.62202"
         width="38.294605"
         id="rect4161"
         style="opacity:1;fill:#ffffff;fill-opacity:1;stroke:#000000;stroke-width:3.57596707;stroke-linejoin:round;stroke-miterlimit:4;stroke-dasharray:none;stroke-dashoffset:81.09999847;stroke-opacity:1" />
      <rect
         style="opacity:1;fill:#ffffff;fill-opacity:1;stroke:#000000;stroke-width:3.66808653;stroke-linejoin:round;stroke-miterlimit:4;stroke-dasharray:none;stroke-dashoffset:81.09999847;stroke-opacity:1"
         id="rect4163"
         width="40.323807"
         height="120.52991"
         x="261.36966"
         y="567.83319" />
    </g>
    <g
       style="font-style:normal;font-weight:normal;font-size:70px;line-height:125%;font-family:sans-serif;letter-spacing:0px;word-spacing:0px;fill:#000000;fill-opacity:1;stroke:none;stroke-width:1px;stroke-linecap:butt;stroke-linejoin:miter;stroke-opacity:1"
       id="text4136"
       transform="translate(88.893424,7.0507627)">
      <path
         d="m 189.72726,584.18909 10.28809,0 13.02246,34.72656 13.09082,-34.72656 10.28809,0 0,51.03027 -6.7334,0 0,-44.80957 -13.15918,35 -6.93848,0 -13.15918,-35 0,44.80957 -6.69922,0 0,-51.03027 z"
         id="path4145"
         inkscape:connector-curvature="0"
         style="fill:#009a00;fill-opacity:1;stroke:#000006;stroke-opacity:1;stroke-width:2.5;stroke-miterlimit:4;stroke-dasharray:none" />
      <path
         d="m 243.95931,584.18909 19.02614,0 0,93.45668 -19.02614,0 0,-93.45668 z"
         id="path4147"
         inkscape:connector-curvature="0" />
      <path
         d="m 277.56906,589.86292 0,39.68261 8.33985,0 q 10.56152,0 15.44921,-4.78515 4.92188,-4.78516 4.92188,-15.10743 0,-10.2539 -4.92188,-15.00488 -4.88769,-4.78515 -15.44921,-4.78515 l -8.33985,0 z m -6.9043,-5.67383 14.18457,0 q 14.83399,0 21.77247,6.18652 6.93847,6.15234 6.93847,19.27734 0,13.19336 -6.97265,19.37989 -6.97266,6.18652 -21.73829,6.18652 l -14.18457,0 0,-51.03027 z"
         id="path4149"
         inkscape:connector-curvature="0"
         style="fill:#009a00;fill-opacity:1;stroke:#000006;stroke-opacity:1;stroke-width:2.5;stroke-miterlimit:4;stroke-dasharray:none" />
      <path
         d="m 324.53195,584.18909 6.9043,0 0,51.03027 -6.9043,0 0,-51.03027 z"
         id="path4151"
         inkscape:connector-curvature="0" />
      <path
         d="m 362.30051,615.9762 q -7.62207,0 -10.56153,1.74316 -2.93945,1.74316 -2.93945,5.94727 0,3.34961 2.1875,5.33203 2.22168,1.94824 6.01563,1.94824 5.22949,0 8.37402,-3.69141 3.17871,-3.72558 3.17871,-9.87793 l 0,-1.40136 -6.25488,0 z m 12.54394,-2.59766 0,21.84082 -6.28906,0 0,-5.81055 q -2.15332,3.48633 -5.36621,5.16114 -3.21289,1.64062 -7.86133,1.64062 -5.87891,0 -9.36523,-3.28125 -3.45215,-3.31543 -3.45215,-8.85254 0,-6.45996 4.30664,-9.74121 4.34082,-3.28125 12.91992,-3.28125 l 8.81836,0 0,-0.61523 q 0,-4.34082 -2.87109,-6.69922 -2.83692,-2.39258 -7.99805,-2.39258 -3.28125,0 -6.3916,0.78613 -3.11035,0.78614 -5.98145,2.3584 l 0,-5.81055 q 3.45215,-1.333 6.69922,-1.98242 3.24707,-0.68359 6.32324,-0.68359 8.30567,0 12.40723,4.30664 4.10156,4.30664 4.10156,13.05664 z"
         id="path4153"
         inkscape:connector-curvature="0"
         style="fill:#0000ad;fill-opacity:1;stroke:#000006;stroke-opacity:1;stroke-width:3;stroke-miterlimit:4;stroke-dasharray:none" />
      <path
         d="m 419.79074,612.11389 0,23.10547 -6.28906,0 0,-22.90039 q 0,-5.43457 -2.11914,-8.13477 -2.11914,-2.70019 -6.35742,-2.70019 -5.09278,0 -8.03223,3.24707 -2.93945,3.24707 -2.93945,8.85254 l 0,21.63574 -6.32325,0 0,-38.28125 6.32325,0 0,5.94727 q 2.25586,-3.45215 5.29785,-5.16114 3.07617,-1.70898 7.07519,-1.70898 6.59668,0 9.98047,4.10156 3.38379,4.06738 3.38379,11.99707 z"
         id="path4155"
         inkscape:connector-curvature="0"
         style="fill:#0000ad;fill-opacity:1;stroke:#000006;stroke-opacity:1;stroke-width:3;stroke-miterlimit:4;stroke-dasharray:none" />
      <path
         d="m 447.23703,601.34729 q -5.05859,0 -7.99805,3.96484 -2.93945,3.93067 -2.93945,10.80079 0,6.87011 2.90527,10.83496 2.93946,3.93066 8.03223,3.93066 5.02441,0 7.96387,-3.96484 2.93945,-3.96485 2.93945,-10.80078 0,-6.80176 -2.93945,-10.76661 -2.93946,-3.99902 -7.96387,-3.99902 z m 0,-5.33203 q 8.20313,0 12.88574,5.33203 4.68262,5.33203 4.68262,14.76563 0,9.39941 -4.68262,14.76562 -4.68261,5.33203 -12.88574,5.33203 -8.2373,0 -12.91992,-5.33203 -4.64844,-5.36621 -4.64844,-14.76562 0,-9.4336 4.64844,-14.76563 4.68262,-5.33203 12.91992,-5.33203 z"
         id="path4157"
         inkscape:connector-curvature="0"
         style="fill:none;fill-opacity:1;stroke:none" />
      <path
         inkscape:connector-curvature="0"
         id="path4159"
         d="m 318.47103,584.18909 19.02614,0 0,93.45668 -19.02614,0 0,-93.45668 z" />
    </g>
    <text
       xml:space="preserve"
       style="font-style:normal;font-weight:normal;font-size:70px;line-height:125%;font-family:sans-serif;letter-spacing:0px;word-spacing:0px;fill:#000000;fill-opacity:1;stroke:none;stroke-width:1px;stroke-linecap:butt;stroke-linejoin:miter;stroke-opacity:1"
       x="348.57144"
       y="718.07648"
       id="text4140"
       sodipodi:linespacing="125%"><tspan
         sodipodi:role="line"
         id="tspan4142"
         x="348.57144"
         y="718.07648" /></text>
    <path
       style="opacity:1;fill:#000000;fill-opacity:1;stroke:#ffffff;stroke-width:2.34633541;stroke-linejoin:round;stroke-miterlimit:4;stroke-dasharray:none;stroke-dashoffset:81.09999847;stroke-opacity:1"
       d="m 545.89154,524.34166 c 3.53532,0.76068 12.19041,0 12.19041,0 -3.0502,17.90178 54.0826,42.01705 21.92503,83.87644 28.76154,-34.07214 -31.66025,-76.41477 -34.11544,-48.57488 z"
       id="rect4196"
       inkscape:connector-curvature="0"
       sodipodi:nodetypes="csccc" />
    <path
       style="opacity:1;fill:#000000;fill-opacity:1;stroke:#ffffff;stroke-width:5;stroke-linejoin:round;stroke-miterlimit:4;stroke-dasharray:none;stroke-dashoffset:81.09999847;stroke-opacity:1"
       d="m 554.01818,622.08771 c 0,10.54416 -8.38944,19.09188 -18.73833,19.09188 -10.34889,0 -18.73833,-2.54772 -18.73833,-13.09188 0,-10.54416 8.38943,-19.09189 18.73833,-19.09189 10.3489,0 18.73833,2.54773 18.73833,13.09189 z"
       id="path4201"
       inkscape:connector-curvature="0"
       sodipodi:nodetypes="sssss" />
  </g>
</svg>
